<svg width="1200" height="900" viewBox="0 0 1200 900" fill="none" xmlns="http://www.w3.org/2000/svg">
  <rect width="1200" height="900" rx="44" fill="#F8FAFC"/>
  <rect x="58" y="58" width="1084" height="784" rx="34" fill="url(#paint0_linear)"/>
  <rect x="96" y="104" width="350" height="184" rx="26" fill="#FFFFFF"/>
  <rect x="122" y="132" width="178" height="18" rx="9" fill="#C7D9F7"/>
  <rect x="122" y="168" width="258" height="54" rx="18" fill="#0F172A"/>
  <rect x="122" y="238" width="206" height="18" rx="9" fill="#6B7C99"/>
  <rect x="500" y="108" width="548" height="316" rx="30" fill="#0F172A"/>
  <rect x="546" y="154" width="192" height="138" rx="22" fill="#2563EB"/>
  <rect x="768" y="154" width="234" height="40" rx="12" fill="#E7EEF9"/>
  <rect x="768" y="212" width="182" height="18" rx="9" fill="#C9D8F2"/>
  <rect x="768" y="246" width="206" height="18" rx="9" fill="#C9D8F2"/>
  <rect x="768" y="280" width="152" height="18" rx="9" fill="#C9D8F2"/>
  <rect x="768" y="336" width="164" height="44" rx="14" fill="#1D4ED8"/>
  <rect x="96" y="346" width="322" height="194" rx="28" fill="#FFFFFF"/>
  <rect x="454" y="462" width="594" height="118" rx="28" fill="#FFFFFF"/>
  <rect x="490" y="492" width="182" height="22" rx="11" fill="#0F172A"/>
  <rect x="490" y="532" width="408" height="16" rx="8" fill="#93A6C7"/>
  <rect x="934" y="498" width="78" height="48" rx="16" fill="#2563EB"/>
  <rect x="96" y="592" width="952" height="176" rx="34" fill="#0F172A"/>
  <rect x="132" y="636" width="178" height="24" rx="12" fill="#4D74D4"/>
  <rect x="132" y="686" width="308" height="18" rx="9" fill="#D9E5F7"/>
  <rect x="476" y="636" width="536" height="84" rx="24" fill="#1E293B"/>
  <rect x="512" y="670" width="156" height="16" rx="8" fill="#C7D9F7"/>
  <rect x="694" y="670" width="156" height="16" rx="8" fill="#C7D9F7"/>
  <rect x="876" y="670" width="100" height="16" rx="8" fill="#C7D9F7"/>
  <defs>
    <linearGradient id="paint0_linear" x1="90" y1="80" x2="1110" y2="820" gradientUnits="userSpaceOnUse">
      <stop stop-color="#EAF2FF"/>
      <stop offset="1" stop-color="#D7E5FB"/>
    </linearGradient>
  </defs>
</svg>
