<svg width="1200" height="900" viewBox="0 0 1200 900" fill="none" xmlns="http://www.w3.org/2000/svg">
  <rect width="1200" height="900" rx="44" fill="#FAFCFF"/>
  <rect x="62" y="62" width="1076" height="776" rx="32" fill="#0F172A"/>
  <rect x="110" y="114" width="414" height="236" rx="28" fill="#13213A"/>
  <rect x="146" y="152" width="168" height="20" rx="10" fill="#4D74D4"/>
  <rect x="146" y="190" width="296" height="72" rx="18" fill="#2563EB"/>
  <rect x="146" y="282" width="220" height="18" rx="9" fill="#9FB4D8"/>
  <rect x="568" y="114" width="470" height="236" rx="28" fill="#FFFFFF"/>
  <circle cx="660" cy="192" r="46" fill="#DBEAFE"/>
  <circle cx="660" cy="192" r="24" fill="#2563EB"/>
  <rect x="734" y="156" width="238" height="18" rx="9" fill="#0F172A"/>
  <rect x="734" y="194" width="186" height="16" rx="8" fill="#6B7C99"/>
  <rect x="734" y="226" width="210" height="16" rx="8" fill="#6B7C99"/>
  <rect x="734" y="268" width="152" height="40" rx="12" fill="#E7EEF9"/>
  <rect x="110" y="402" width="928" height="148" rx="28" fill="#FFFFFF"/>
  <rect x="150" y="446" width="164" height="18" rx="9" fill="#0F172A"/>
  <rect x="150" y="484" width="612" height="16" rx="8" fill="#A7B8D3"/>
  <rect x="808" y="434" width="190" height="84" rx="22" fill="#2563EB"/>
  <rect x="110" y="592" width="286" height="190" rx="28" fill="#FFFFFF"/>
  <rect x="424" y="592" width="286" height="190" rx="28" fill="#FFFFFF"/>
  <rect x="738" y="592" width="300" height="190" rx="28" fill="#FFFFFF"/>
  <rect x="144" y="630" width="124" height="14" rx="7" fill="#4D74D4"/>
  <rect x="144" y="664" width="198" height="14" rx="7" fill="#8EA3C6"/>
  <rect x="458" y="630" width="124" height="14" rx="7" fill="#4D74D4"/>
  <rect x="458" y="664" width="198" height="14" rx="7" fill="#8EA3C6"/>
  <rect x="772" y="630" width="124" height="14" rx="7" fill="#4D74D4"/>
  <rect x="772" y="664" width="198" height="14" rx="7" fill="#8EA3C6"/>
</svg>
