<svg width="1200" height="900" viewBox="0 0 1200 900" fill="none" xmlns="http://www.w3.org/2000/svg">
  <rect width="1200" height="900" rx="48" fill="#F3F7FE"/>
  <rect x="70" y="70" width="1060" height="760" rx="36" fill="white" stroke="#D6E1F5" stroke-width="4"/>
  <rect x="126" y="140" width="948" height="104" rx="28" fill="#0F172A"/>
  <rect x="176" y="184" width="266" height="20" rx="10" fill="white" fill-opacity="0.18"/>
  <rect x="176" y="218" width="196" height="14" rx="7" fill="white" fill-opacity="0.12"/>
  <rect x="126" y="292" width="278" height="216" rx="28" fill="#F8FBFF" stroke="#D6E1F5" stroke-width="3"/>
  <rect x="460" y="292" width="278" height="216" rx="28" fill="#F8FBFF" stroke="#D6E1F5" stroke-width="3"/>
  <rect x="794" y="292" width="278" height="216" rx="28" fill="#F8FBFF" stroke="#D6E1F5" stroke-width="3"/>
  <circle cx="220" cy="366" r="42" fill="#0860C3" fill-opacity="0.14"/>
  <circle cx="554" cy="366" r="42" fill="#0860C3" fill-opacity="0.14"/>
  <circle cx="888" cy="366" r="42" fill="#0860C3" fill-opacity="0.14"/>
  <rect x="184" y="432" width="162" height="16" rx="8" fill="#0F172A" fill-opacity="0.16"/>
  <rect x="518" y="432" width="162" height="16" rx="8" fill="#0F172A" fill-opacity="0.16"/>
  <rect x="852" y="432" width="162" height="16" rx="8" fill="#0F172A" fill-opacity="0.16"/>
  <path d="M404 398H460" stroke="#0860C3" stroke-width="10" stroke-linecap="round"/>
  <path d="M738 398H794" stroke="#0860C3" stroke-width="10" stroke-linecap="round"/>
  <path d="M599 540V650" stroke="#0F172A" stroke-opacity="0.14" stroke-width="10" stroke-linecap="round"/>
  <rect x="278" y="616" width="644" height="132" rx="30" fill="#EAF2FF" stroke="#D6E1F5" stroke-width="3"/>
  <rect x="332" y="668" width="174" height="16" rx="8" fill="#0F172A" fill-opacity="0.14"/>
  <rect x="542" y="668" width="174" height="16" rx="8" fill="#0F172A" fill-opacity="0.14"/>
  <rect x="752" y="668" width="116" height="44" rx="16" fill="#0860C3"/>
</svg>
