<svg width="1200" height="900" viewBox="0 0 1200 900" fill="none" xmlns="http://www.w3.org/2000/svg">
  <rect width="1200" height="900" rx="44" fill="#FAFCFF"/>
  <rect x="82" y="82" width="1036" height="736" rx="34" fill="url(#paint0_linear)"/>
  <rect x="138" y="138" width="400" height="216" rx="28" fill="#FFFFFF"/>
  <rect x="180" y="186" width="144" height="18" rx="9" fill="#4D74D4"/>
  <rect x="180" y="224" width="254" height="58" rx="18" fill="#0F172A"/>
  <rect x="578" y="138" width="484" height="216" rx="28" fill="#FFFFFF"/>
  <rect x="622" y="186" width="162" height="18" rx="9" fill="#0F172A"/>
  <rect x="622" y="224" width="390" height="14" rx="7" fill="#A2B4D0"/>
  <rect x="622" y="256" width="330" height="14" rx="7" fill="#A2B4D0"/>
  <rect x="138" y="412" width="924" height="324" rx="30" fill="#0F172A"/>
  <rect x="192" y="466" width="216" height="18" rx="9" fill="#C7D9F7"/>
  <rect x="192" y="518" width="818" height="2" fill="#30425D"/>
  <rect x="192" y="562" width="232" height="64" rx="20" fill="#1D4ED8"/>
  <rect x="456" y="562" width="232" height="64" rx="20" fill="#1E293B"/>
  <rect x="720" y="562" width="232" height="64" rx="20" fill="#FFFFFF"/>
  <defs>
    <linearGradient id="paint0_linear" x1="96" y1="96" x2="1110" y2="802" gradientUnits="userSpaceOnUse">
      <stop stop-color="#EDF4FF"/>
      <stop offset="1" stop-color="#DCE9FF"/>
    </linearGradient>
  </defs>
</svg>
