<svg width="1200" height="900" viewBox="0 0 1200 900" fill="none" xmlns="http://www.w3.org/2000/svg">
  <rect width="1200" height="900" rx="44" fill="#F8FAFC"/>
  <rect x="78" y="78" width="1044" height="744" rx="34" fill="url(#paint0_linear)"/>
  <rect x="132" y="136" width="936" height="188" rx="28" fill="#FFFFFF"/>
  <rect x="182" y="186" width="210" height="18" rx="9" fill="#0F172A"/>
  <rect x="182" y="226" width="414" height="16" rx="8" fill="#97AAC8"/>
  <rect x="132" y="382" width="224" height="300" rx="28" fill="#FFFFFF"/>
  <rect x="488" y="382" width="224" height="300" rx="28" fill="#FFFFFF"/>
  <rect x="844" y="382" width="224" height="300" rx="28" fill="#FFFFFF"/>
  <rect x="178" y="444" width="132" height="68" rx="18" fill="#2563EB"/>
  <rect x="534" y="444" width="132" height="68" rx="18" fill="#0F172A"/>
  <rect x="890" y="444" width="132" height="68" rx="18" fill="#2563EB"/>
  <path d="M356 478H488" stroke="#9DB4D9" stroke-width="12" stroke-linecap="round" stroke-dasharray="16 18"/>
  <path d="M712 478H844" stroke="#9DB4D9" stroke-width="12" stroke-linecap="round" stroke-dasharray="16 18"/>
  <rect x="176" y="560" width="136" height="16" rx="8" fill="#9AAECE"/>
  <rect x="532" y="560" width="136" height="16" rx="8" fill="#9AAECE"/>
  <rect x="888" y="560" width="136" height="16" rx="8" fill="#9AAECE"/>
  <defs>
    <linearGradient id="paint0_linear" x1="96" y1="94" x2="1100" y2="810" gradientUnits="userSpaceOnUse">
      <stop stop-color="#EEF4FF"/>
      <stop offset="1" stop-color="#D7E5FB"/>
    </linearGradient>
  </defs>
</svg>
