<svg width="1200" height="900" viewBox="0 0 1200 900" fill="none" xmlns="http://www.w3.org/2000/svg">
  <rect width="1200" height="900" rx="48" fill="#F5F9FF"/>
  <circle cx="610" cy="450" r="232" fill="#0860C3" fill-opacity="0.08"/>
  <circle cx="610" cy="450" r="164" fill="#0860C3" fill-opacity="0.12"/>
  <circle cx="610" cy="450" r="108" fill="#0860C3" fill-opacity="0.18"/>
  <path d="M556 451L596 491L676 411" stroke="#0860C3" stroke-width="22" stroke-linecap="round" stroke-linejoin="round"/>
  <rect x="170" y="136" width="224" height="112" rx="28" fill="white" stroke="#D5E2F6" stroke-width="3"/>
  <rect x="806" y="168" width="230" height="112" rx="28" fill="white" stroke="#D5E2F6" stroke-width="3"/>
  <rect x="828" y="208" width="136" height="16" rx="8" fill="#0F172A" fill-opacity="0.14"/>
  <rect x="194" y="178" width="112" height="16" rx="8" fill="#0F172A" fill-opacity="0.14"/>
  <rect x="194" y="212" width="160" height="16" rx="8" fill="#0F172A" fill-opacity="0.1"/>
  <path d="M282 248C340 304 392 338 454 350" stroke="#0860C3" stroke-opacity="0.22" stroke-width="12" stroke-linecap="round"/>
  <path d="M930 280C868 328 820 352 754 362" stroke="#0860C3" stroke-opacity="0.22" stroke-width="12" stroke-linecap="round"/>
  <rect x="206" y="656" width="788" height="100" rx="28" fill="white" stroke="#D5E2F6" stroke-width="3"/>
  <rect x="262" y="698" width="266" height="16" rx="8" fill="#0F172A" fill-opacity="0.14"/>
  <rect x="560" y="698" width="178" height="16" rx="8" fill="#0F172A" fill-opacity="0.1"/>
  <rect x="782" y="678" width="154" height="48" rx="18" fill="#0860C3"/>
</svg>
