<svg width="1200" height="900" viewBox="0 0 1200 900" fill="none" xmlns="http://www.w3.org/2000/svg">
  <rect width="1200" height="900" rx="44" fill="#F8FAFC"/>
  <rect x="62" y="62" width="1076" height="776" rx="34" fill="url(#paint0_linear)"/>
  <rect x="116" y="126" width="444" height="262" rx="30" fill="#FFFFFF"/>
  <rect x="154" y="166" width="172" height="18" rx="9" fill="#4D74D4"/>
  <rect x="154" y="204" width="250" height="62" rx="18" fill="#0F172A"/>
  <rect x="154" y="286" width="220" height="18" rx="9" fill="#6B7C99"/>
  <path d="M612 220C612 152.621 666.621 98 734 98H898C965.379 98 1020 152.621 1020 220V238C1020 305.379 965.379 360 898 360H866L800 426V360H734C666.621 360 612 305.379 612 238V220Z" fill="#FFFFFF"/>
  <rect x="666" y="170" width="160" height="18" rx="9" fill="#0F172A"/>
  <rect x="666" y="206" width="230" height="16" rx="8" fill="#8EA3C6"/>
  <rect x="666" y="238" width="186" height="16" rx="8" fill="#8EA3C6"/>
  <rect x="116" y="442" width="968" height="266" rx="30" fill="#FFFFFF"/>
  <rect x="160" y="490" width="244" height="18" rx="9" fill="#0F172A"/>
  <rect x="160" y="530" width="614" height="16" rx="8" fill="#93A6C7"/>
  <rect x="814" y="474" width="218" height="138" rx="28" fill="#0F172A"/>
  <rect x="848" y="516" width="74" height="74" rx="20" fill="#2563EB"/>
  <rect x="946" y="528" width="52" height="16" rx="8" fill="#C7D9F7"/>
  <rect x="946" y="558" width="52" height="16" rx="8" fill="#C7D9F7"/>
  <defs>
    <linearGradient id="paint0_linear" x1="88" y1="90" x2="1100" y2="810" gradientUnits="userSpaceOnUse">
      <stop stop-color="#EAF2FF"/>
      <stop offset="1" stop-color="#D8E6FD"/>
    </linearGradient>
  </defs>
</svg>
