<svg width="1280" height="860" viewBox="0 0 1280 860" fill="none" xmlns="http://www.w3.org/2000/svg" role="img" aria-label="Hero operations placeholder">
  <rect width="1280" height="860" fill="#1E1A17"/>
  <g opacity="0.2">
    <path d="M0 86H1280M0 172H1280M0 258H1280M0 344H1280M0 430H1280M0 516H1280M0 602H1280M0 688H1280M0 774H1280" stroke="#F1E6D8" stroke-width="1"/>
    <path d="M91 0V860M182 0V860M273 0V860M364 0V860M455 0V860M546 0V860M637 0V860M728 0V860M819 0V860M910 0V860M1001 0V860M1092 0V860M1183 0V860" stroke="#F1E6D8" stroke-width="1"/>
  </g>
  <rect x="84" y="108" width="540" height="300" rx="18" fill="#2A2521" stroke="#A56A44" stroke-opacity="0.65"/>
  <rect x="656" y="108" width="540" height="180" rx="18" fill="#2A2521" stroke="#A56A44" stroke-opacity="0.48"/>
  <rect x="656" y="318" width="540" height="360" rx="18" fill="#2A2521" stroke="#A56A44" stroke-opacity="0.48"/>
  <rect x="84" y="438" width="540" height="240" rx="18" fill="#2A2521" stroke="#A56A44" stroke-opacity="0.48"/>
  <path d="M136 562C224 491 314 505 396 566C478 627 561 616 588 590" stroke="#BE7A4C" stroke-width="3"/>
  <circle cx="136" cy="562" r="6" fill="#E9D2BC"/>
  <circle cx="396" cy="566" r="6" fill="#E9D2BC"/>
  <circle cx="588" cy="590" r="6" fill="#E9D2BC"/>
  <text x="124" y="158" fill="#E9D9C8" font-family="Manrope, sans-serif" font-size="22" font-weight="700">Hero Placeholder</text>
  <text x="124" y="194" fill="#CBB9A4" font-family="Manrope, sans-serif" font-size="16">Replace with premium operations + architecture composite visual</text>
</svg>
