<svg width="1200" height="900" viewBox="0 0 1200 900" fill="none" xmlns="http://www.w3.org/2000/svg">
  <rect width="1200" height="900" rx="44" fill="#F8FAFC"/>
  <rect x="58" y="58" width="1084" height="784" rx="34" fill="url(#paint0_linear)"/>
  <rect x="116" y="116" width="968" height="668" rx="30" fill="#FFFDFB"/>
  <path d="M636 260H1010V632H630C678 566 714 496 714 428C714 366 684 308 636 260Z" fill="url(#paint1_linear)"/>
  <rect x="160" y="168" width="232" height="42" rx="14" fill="#EAF2FF"/>
  <rect x="160" y="238" width="408" height="74" rx="18" fill="#0F172A"/>
  <rect x="160" y="334" width="318" height="18" rx="9" fill="#6B7C99"/>
  <rect x="160" y="394" width="458" height="2" fill="#DDE6F3"/>
  <circle cx="178" cy="438" r="16" fill="#DCFCE7"/>
  <path d="M171 438L176 443L186 433" stroke="#22C55E" stroke-width="4" stroke-linecap="round" stroke-linejoin="round"/>
  <circle cx="178" cy="500" r="16" fill="#DCFCE7"/>
  <path d="M171 500L176 505L186 495" stroke="#22C55E" stroke-width="4" stroke-linecap="round" stroke-linejoin="round"/>
  <circle cx="178" cy="562" r="16" fill="#DCFCE7"/>
  <path d="M171 562L176 567L186 557" stroke="#22C55E" stroke-width="4" stroke-linecap="round" stroke-linejoin="round"/>
  <rect x="214" y="426" width="244" height="22" rx="11" fill="#0F172A"/>
  <rect x="214" y="488" width="212" height="22" rx="11" fill="#0F172A"/>
  <rect x="214" y="550" width="226" height="22" rx="11" fill="#0F172A"/>
  <defs>
    <linearGradient id="paint0_linear" x1="84" y1="80" x2="1110" y2="820" gradientUnits="userSpaceOnUse">
      <stop stop-color="#F4EFE8"/>
      <stop offset="1" stop-color="#F3F7FD"/>
    </linearGradient>
    <linearGradient id="paint1_linear" x1="820" y1="260" x2="820" y2="632" gradientUnits="userSpaceOnUse">
      <stop stop-color="#FFE9D5"/>
      <stop offset="0.55" stop-color="#FFF3E7"/>
      <stop offset="1" stop-color="#F1F5F9"/>
    </linearGradient>
  </defs>
</svg>
