<svg xmlns="http://www.w3.org/2000/svg" xmlns:xlink="http://www.w3.org/1999/xlink" width="375" zoomAndPan="magnify" viewBox="0 110 375 155" height="155" preserveAspectRatio="xMidYMid meet" version="1.0"><defs><g/><clipPath id="67f1ebe782"><rect x="0" width="375" y="0" height="155"/></clipPath></defs><g transform="matrix(1, 0, 0, 1, 0, 110)"><g clip-path="url(#67f1ebe782)"><g fill="#000000" fill-opacity="1"><g transform="translate(3.577995, 111.049646)"><g><path d="M 23.53125 -63.53125 L 39 -28.96875 L 54.484375 -63.53125 L 80.484375 -63.53125 L 46.4375 0 L 31.578125 0 L -2.484375 -63.53125 Z M 23.53125 -63.53125 "/></g></g></g><g fill="#000000" fill-opacity="1"><g transform="translate(69.93112, 111.049646)"><g><path d="M 71.703125 -28.734375 L 25.625 -28.734375 C 25.625 -24.273438 27.066406 -20.972656 29.953125 -18.828125 C 32.847656 -16.679688 35.988281 -15.609375 39.375 -15.609375 C 42.925781 -15.609375 45.734375 -16.082031 47.796875 -17.03125 C 49.859375 -17.976562 52.210938 -19.851562 54.859375 -22.65625 L 70.703125 -14.734375 C 64.097656 -3.671875 53.117188 1.859375 37.765625 1.859375 C 28.191406 1.859375 19.976562 -1.421875 13.125 -7.984375 C 6.269531 -14.546875 2.84375 -22.445312 2.84375 -31.6875 C 2.84375 -40.9375 6.269531 -48.863281 13.125 -55.46875 C 19.976562 -62.070312 28.191406 -65.375 37.765625 -65.375 C 47.835938 -65.375 56.03125 -62.460938 62.34375 -56.640625 C 68.664062 -50.828125 71.828125 -42.515625 71.828125 -31.703125 C 71.828125 -30.210938 71.785156 -29.222656 71.703125 -28.734375 Z M 26.25 -40.859375 L 50.390625 -40.859375 C 49.898438 -44.160156 48.601562 -46.695312 46.5 -48.46875 C 44.394531 -50.25 41.691406 -51.140625 38.390625 -51.140625 C 34.753906 -51.140625 31.863281 -50.1875 29.71875 -48.28125 C 27.570312 -46.382812 26.414062 -43.910156 26.25 -40.859375 Z M 26.25 -40.859375 "/></g></g></g><g fill="#000000" fill-opacity="1"><g transform="translate(132.941666, 111.049646)"><g><path d="M 80.984375 0 L 54.484375 0 L 40.484375 -17.953125 L 26.5 0 L 0 0 L 27.125 -33.1875 L 3.84375 -63.53125 L 29.46875 -63.53125 L 40.484375 -48.78125 L 51.515625 -63.53125 L 77.140625 -63.53125 L 53.859375 -33.1875 Z M 80.984375 0 "/></g></g></g><g fill="#000000" fill-opacity="1"><g transform="translate(202.265989, 111.049646)"><g><path d="M 11.140625 -63.53125 L 11.140625 -87.171875 L 33.0625 -87.171875 L 33.0625 -63.53125 L 46.4375 -63.53125 L 46.4375 -46.8125 L 33.0625 -46.8125 L 33.0625 -26.625 C 33.0625 -20.757812 34.710938 -17.828125 38.015625 -17.828125 C 38.835938 -17.828125 39.703125 -17.992188 40.609375 -18.328125 C 41.523438 -18.660156 42.226562 -18.988281 42.71875 -19.3125 L 43.46875 -19.8125 L 48.90625 -2.109375 C 44.207031 0.535156 38.84375 1.859375 32.8125 1.859375 C 28.6875 1.859375 25.132812 1.132812 22.15625 -0.3125 C 19.1875 -1.757812 16.9375 -3.695312 15.40625 -6.125 C 13.882812 -8.5625 12.789062 -11.117188 12.125 -13.796875 C 11.46875 -16.484375 11.140625 -19.351562 11.140625 -22.40625 L 11.140625 -46.8125 L 1.984375 -46.8125 L 1.984375 -63.53125 Z M 11.140625 -63.53125 "/></g></g></g><g fill="#000000" fill-opacity="1"><g transform="translate(239.526237, 111.049646)"><g><path d="M 13.421875 -7.546875 C 6.367188 -13.828125 2.84375 -21.878906 2.84375 -31.703125 C 2.84375 -41.523438 6.515625 -49.59375 13.859375 -55.90625 C 21.210938 -62.21875 30.296875 -65.375 41.109375 -65.375 C 51.753906 -65.375 60.726562 -62.195312 68.03125 -55.84375 C 75.34375 -49.488281 79 -41.441406 79 -31.703125 C 79 -21.960938 75.425781 -13.929688 68.28125 -7.609375 C 61.144531 -1.296875 52.085938 1.859375 41.109375 1.859375 C 29.710938 1.859375 20.484375 -1.273438 13.421875 -7.546875 Z M 30.390625 -42.46875 C 27.546875 -39.664062 26.125 -36.078125 26.125 -31.703125 C 26.125 -27.328125 27.484375 -23.753906 30.203125 -20.984375 C 32.929688 -18.222656 36.523438 -16.84375 40.984375 -16.84375 C 45.273438 -16.84375 48.800781 -18.242188 51.5625 -21.046875 C 54.332031 -23.859375 55.71875 -27.410156 55.71875 -31.703125 C 55.71875 -36.078125 54.289062 -39.664062 51.4375 -42.46875 C 48.59375 -45.28125 45.109375 -46.6875 40.984375 -46.6875 C 36.773438 -46.6875 33.242188 -45.28125 30.390625 -42.46875 Z M 30.390625 -42.46875 "/></g></g></g><g fill="#000000" fill-opacity="1"><g transform="translate(309.717157, 111.049646)"><g><path d="M 7.4375 0 L 7.4375 -63.53125 L 29.34375 -63.53125 L 29.34375 -54.359375 L 29.59375 -54.359375 C 29.757812 -54.691406 30.023438 -55.101562 30.390625 -55.59375 C 30.765625 -56.09375 31.570312 -56.960938 32.8125 -58.203125 C 34.050781 -59.441406 35.367188 -60.554688 36.765625 -61.546875 C 38.171875 -62.535156 39.988281 -63.421875 42.21875 -64.203125 C 44.445312 -64.984375 46.71875 -65.375 49.03125 -65.375 C 51.425781 -65.375 53.78125 -65.046875 56.09375 -64.390625 C 58.40625 -63.734375 60.097656 -63.070312 61.171875 -62.40625 L 62.90625 -61.421875 L 53.734375 -42.84375 C 51.015625 -45.15625 47.21875 -46.3125 42.34375 -46.3125 C 39.707031 -46.3125 37.4375 -45.734375 35.53125 -44.578125 C 33.632812 -43.421875 32.296875 -42.015625 31.515625 -40.359375 C 30.734375 -38.710938 30.175781 -37.3125 29.84375 -36.15625 C 29.507812 -35 29.34375 -34.09375 29.34375 -33.4375 L 29.34375 0 Z M 7.4375 0 "/></g></g></g></g></g></svg>