<svg width="1200" height="900" viewBox="0 0 1200 900" fill="none" xmlns="http://www.w3.org/2000/svg">
  <rect width="1200" height="900" rx="44" fill="#F8FAFC"/>
  <rect x="68" y="68" width="1064" height="764" rx="36" fill="#0F172A"/>
  <rect x="118" y="120" width="964" height="196" rx="28" fill="#13213A"/>
  <rect x="160" y="170" width="188" height="18" rx="9" fill="#4D74D4"/>
  <rect x="160" y="208" width="286" height="16" rx="8" fill="#B8C8E3"/>
  <rect x="118" y="362" width="300" height="366" rx="28" fill="#FFFFFF"/>
  <rect x="450" y="362" width="300" height="366" rx="28" fill="#FFFFFF"/>
  <rect x="782" y="362" width="300" height="366" rx="28" fill="#FFFFFF"/>
  <circle cx="268" cy="446" r="36" fill="#DBEAFE"/>
  <rect x="218" y="516" width="100" height="18" rx="9" fill="#0F172A"/>
  <rect x="194" y="556" width="148" height="14" rx="7" fill="#8EA3C6"/>
  <circle cx="600" cy="446" r="36" fill="#DBEAFE"/>
  <rect x="550" y="516" width="100" height="18" rx="9" fill="#0F172A"/>
  <rect x="526" y="556" width="148" height="14" rx="7" fill="#8EA3C6"/>
  <circle cx="932" cy="446" r="36" fill="#DBEAFE"/>
  <rect x="882" y="516" width="100" height="18" rx="9" fill="#0F172A"/>
  <rect x="858" y="556" width="148" height="14" rx="7" fill="#8EA3C6"/>
</svg>
