<svg xmlns="http://www.w3.org/2000/svg" xmlns:xlink="http://www.w3.org/1999/xlink" width="311" zoomAndPan="magnify" viewBox="32 123 311 129" height="129" preserveAspectRatio="xMidYMid meet" version="1.0"><defs><g/><clipPath id="5e74e1e03e"><rect x="0" width="311" y="0" height="129"/></clipPath><clipPath id="f0bb28123f"><rect x="0" width="212" y="0" height="27"/></clipPath></defs><g transform="matrix(1, 0, 0, 1, 32, 123)"><g clip-path="url(#5e74e1e03e)"><g fill="#000000" fill-opacity="1"><g transform="translate(3.829299, 92.166588)"><g><path d="M 19.40625 -52.375 L 32.171875 -23.890625 L 44.921875 -52.375 L 66.375 -52.375 L 38.296875 0 L 26.03125 0 L -2.046875 -52.375 Z M 19.40625 -52.375 "/></g></g></g><g fill="#000000" fill-opacity="1"><g transform="translate(58.547195, 92.166588)"><g><path d="M 59.125 -23.6875 L 21.140625 -23.6875 C 21.140625 -20.007812 22.328125 -17.285156 24.703125 -15.515625 C 27.085938 -13.742188 29.675781 -12.859375 32.46875 -12.859375 C 35.394531 -12.859375 37.707031 -13.25 39.40625 -14.03125 C 41.113281 -14.820312 43.054688 -16.375 45.234375 -18.6875 L 58.296875 -12.15625 C 52.859375 -3.03125 43.804688 1.53125 31.140625 1.53125 C 23.242188 1.53125 16.46875 -1.171875 10.8125 -6.578125 C 5.164062 -11.992188 2.34375 -18.515625 2.34375 -26.140625 C 2.34375 -33.765625 5.164062 -40.296875 10.8125 -45.734375 C 16.46875 -51.179688 23.242188 -53.90625 31.140625 -53.90625 C 39.441406 -53.90625 46.195312 -51.503906 51.40625 -46.703125 C 56.613281 -41.910156 59.21875 -35.054688 59.21875 -26.140625 C 59.21875 -24.910156 59.1875 -24.09375 59.125 -23.6875 Z M 21.640625 -33.703125 L 41.5625 -33.703125 C 41.15625 -36.421875 40.082031 -38.507812 38.34375 -39.96875 C 36.601562 -41.4375 34.375 -42.171875 31.65625 -42.171875 C 28.65625 -42.171875 26.269531 -41.382812 24.5 -39.8125 C 22.726562 -38.25 21.773438 -36.210938 21.640625 -33.703125 Z M 21.640625 -33.703125 "/></g></g></g><g fill="#000000" fill-opacity="1"><g transform="translate(110.508643, 92.166588)"><g><path d="M 66.78125 0 L 44.921875 0 L 33.390625 -14.8125 L 21.84375 0 L 0 0 L 22.359375 -27.359375 L 3.171875 -52.375 L 24.296875 -52.375 L 33.390625 -40.234375 L 42.484375 -52.375 L 63.609375 -52.375 L 44.421875 -27.359375 Z M 66.78125 0 "/></g></g></g><g fill="#000000" fill-opacity="1"><g transform="translate(167.676728, 92.166588)"><g><path d="M 9.1875 -52.375 L 9.1875 -71.890625 L 27.265625 -71.890625 L 27.265625 -52.375 L 38.296875 -52.375 L 38.296875 -38.59375 L 27.265625 -38.59375 L 27.265625 -21.953125 C 27.265625 -17.117188 28.625 -14.703125 31.34375 -14.703125 C 32.03125 -14.703125 32.742188 -14.835938 33.484375 -15.109375 C 34.234375 -15.378906 34.816406 -15.648438 35.234375 -15.921875 L 35.84375 -16.34375 L 40.328125 -1.734375 C 36.453125 0.441406 32.03125 1.53125 27.0625 1.53125 C 23.65625 1.53125 20.726562 0.9375 18.28125 -0.25 C 15.832031 -1.445312 13.976562 -3.046875 12.71875 -5.046875 C 11.457031 -7.054688 10.550781 -9.164062 10 -11.375 C 9.457031 -13.59375 9.1875 -15.960938 9.1875 -18.484375 L 9.1875 -38.59375 L 1.640625 -38.59375 L 1.640625 -52.375 Z M 9.1875 -52.375 "/></g></g></g><g fill="#000000" fill-opacity="1"><g transform="translate(198.403274, 92.166588)"><g><path d="M 11.078125 -6.21875 C 5.253906 -11.394531 2.34375 -18.035156 2.34375 -26.140625 C 2.34375 -34.242188 5.375 -40.894531 11.4375 -46.09375 C 17.5 -51.300781 24.988281 -53.90625 33.90625 -53.90625 C 42.6875 -53.90625 50.085938 -51.285156 56.109375 -46.046875 C 62.128906 -40.804688 65.140625 -34.171875 65.140625 -26.140625 C 65.140625 -18.109375 62.195312 -11.488281 56.3125 -6.28125 C 50.425781 -1.070312 42.957031 1.53125 33.90625 1.53125 C 24.507812 1.53125 16.898438 -1.050781 11.078125 -6.21875 Z M 25.0625 -35.015625 C 22.71875 -32.703125 21.546875 -29.742188 21.546875 -26.140625 C 21.546875 -22.535156 22.664062 -19.59375 24.90625 -17.3125 C 27.15625 -15.03125 30.117188 -13.890625 33.796875 -13.890625 C 37.335938 -13.890625 40.25 -15.046875 42.53125 -17.359375 C 44.8125 -19.671875 45.953125 -22.597656 45.953125 -26.140625 C 45.953125 -29.742188 44.773438 -32.703125 42.421875 -35.015625 C 40.078125 -37.335938 37.203125 -38.5 33.796875 -38.5 C 30.328125 -38.5 27.414062 -37.335938 25.0625 -35.015625 Z M 25.0625 -35.015625 "/></g></g></g><g fill="#000000" fill-opacity="1"><g transform="translate(256.285996, 92.166588)"><g><path d="M 6.125 0 L 6.125 -52.375 L 24.203125 -52.375 L 24.203125 -44.828125 L 24.40625 -44.828125 C 24.539062 -45.097656 24.757812 -45.4375 25.0625 -45.84375 C 25.375 -46.25 26.039062 -46.960938 27.0625 -47.984375 C 28.082031 -49.003906 29.171875 -49.921875 30.328125 -50.734375 C 31.484375 -51.554688 32.976562 -52.289062 34.8125 -52.9375 C 36.65625 -53.582031 38.53125 -53.90625 40.4375 -53.90625 C 42.40625 -53.90625 44.34375 -53.632812 46.25 -53.09375 C 48.15625 -52.550781 49.550781 -52.007812 50.4375 -51.46875 L 51.875 -50.640625 L 44.3125 -35.328125 C 42.070312 -37.234375 38.941406 -38.1875 34.921875 -38.1875 C 32.742188 -38.1875 30.867188 -37.707031 29.296875 -36.75 C 27.734375 -35.800781 26.628906 -34.644531 25.984375 -33.28125 C 25.335938 -31.925781 24.878906 -30.769531 24.609375 -29.8125 C 24.335938 -28.863281 24.203125 -28.113281 24.203125 -27.5625 L 24.203125 0 Z M 6.125 0 "/></g></g></g></g></g><g transform="matrix(1, 0, 0, 1, 111, 223)"><g clip-path="url(#f0bb28123f)"><g fill="#000000" fill-opacity="1"><g transform="translate(1.796405, 19.901572)"><g><path d="M 6.0625 0.203125 C 5.0625 0.203125 4.175781 0.0625 3.40625 -0.21875 C 2.644531 -0.5 1.914062 -0.953125 1.21875 -1.578125 C 0.925781 -1.828125 0.78125 -2.109375 0.78125 -2.421875 C 0.78125 -2.671875 0.875 -2.894531 1.0625 -3.09375 C 1.257812 -3.289062 1.488281 -3.390625 1.75 -3.390625 C 1.976562 -3.390625 2.175781 -3.316406 2.34375 -3.171875 C 2.894531 -2.660156 3.457031 -2.285156 4.03125 -2.046875 C 4.613281 -1.804688 5.273438 -1.6875 6.015625 -1.6875 C 6.878906 -1.6875 7.609375 -1.882812 8.203125 -2.28125 C 8.804688 -2.675781 9.109375 -3.175781 9.109375 -3.78125 C 9.085938 -4.488281 8.785156 -5.035156 8.203125 -5.421875 C 7.617188 -5.816406 6.734375 -6.144531 5.546875 -6.40625 C 4.140625 -6.695312 3.054688 -7.171875 2.296875 -7.828125 C 1.535156 -8.484375 1.15625 -9.394531 1.15625 -10.5625 C 1.15625 -11.363281 1.363281 -12.070312 1.78125 -12.6875 C 2.207031 -13.300781 2.796875 -13.769531 3.546875 -14.09375 C 4.304688 -14.425781 5.160156 -14.59375 6.109375 -14.59375 C 6.953125 -14.59375 7.75 -14.453125 8.5 -14.171875 C 9.257812 -13.898438 9.867188 -13.539062 10.328125 -13.09375 C 10.648438 -12.8125 10.8125 -12.515625 10.8125 -12.203125 C 10.8125 -11.953125 10.71875 -11.734375 10.53125 -11.546875 C 10.34375 -11.359375 10.117188 -11.265625 9.859375 -11.265625 C 9.671875 -11.265625 9.515625 -11.316406 9.390625 -11.421875 C 9.035156 -11.773438 8.539062 -12.078125 7.90625 -12.328125 C 7.28125 -12.578125 6.679688 -12.703125 6.109375 -12.703125 C 5.179688 -12.703125 4.445312 -12.507812 3.90625 -12.125 C 3.375 -11.75 3.109375 -11.253906 3.109375 -10.640625 C 3.109375 -9.972656 3.375 -9.457031 3.90625 -9.09375 C 4.445312 -8.738281 5.253906 -8.441406 6.328125 -8.203125 C 7.398438 -7.960938 8.273438 -7.6875 8.953125 -7.375 C 9.628906 -7.0625 10.148438 -6.625 10.515625 -6.0625 C 10.890625 -5.5 11.078125 -4.765625 11.078125 -3.859375 C 11.078125 -3.066406 10.851562 -2.363281 10.40625 -1.75 C 9.957031 -1.132812 9.347656 -0.65625 8.578125 -0.3125 C 7.816406 0.03125 6.976562 0.203125 6.0625 0.203125 Z M 6.0625 0.203125 "/></g></g></g><g fill="#000000" fill-opacity="1"><g transform="translate(27.150532, 19.901572)"><g><path d="M 14.765625 -7.1875 C 14.765625 -5.800781 14.46875 -4.546875 13.875 -3.421875 C 13.28125 -2.304688 12.457031 -1.421875 11.40625 -0.765625 C 10.351562 -0.117188 9.160156 0.203125 7.828125 0.203125 C 6.492188 0.203125 5.300781 -0.117188 4.25 -0.765625 C 3.195312 -1.421875 2.375 -2.304688 1.78125 -3.421875 C 1.1875 -4.546875 0.890625 -5.800781 0.890625 -7.1875 C 0.890625 -8.570312 1.1875 -9.828125 1.78125 -10.953125 C 2.375 -12.078125 3.195312 -12.960938 4.25 -13.609375 C 5.300781 -14.265625 6.492188 -14.59375 7.828125 -14.59375 C 9.160156 -14.59375 10.351562 -14.265625 11.40625 -13.609375 C 12.457031 -12.960938 13.28125 -12.078125 13.875 -10.953125 C 14.46875 -9.828125 14.765625 -8.570312 14.765625 -7.1875 Z M 12.65625 -7.1875 C 12.65625 -8.21875 12.445312 -9.144531 12.03125 -9.96875 C 11.625 -10.800781 11.050781 -11.453125 10.3125 -11.921875 C 9.582031 -12.398438 8.753906 -12.640625 7.828125 -12.640625 C 6.898438 -12.640625 6.066406 -12.40625 5.328125 -11.9375 C 4.597656 -11.46875 4.023438 -10.816406 3.609375 -9.984375 C 3.203125 -9.160156 3 -8.226562 3 -7.1875 C 3 -6.164062 3.203125 -5.238281 3.609375 -4.40625 C 4.023438 -3.582031 4.597656 -2.929688 5.328125 -2.453125 C 6.066406 -1.984375 6.898438 -1.75 7.828125 -1.75 C 8.753906 -1.75 9.582031 -1.984375 10.3125 -2.453125 C 11.050781 -2.929688 11.625 -3.582031 12.03125 -4.40625 C 12.445312 -5.238281 12.65625 -6.164062 12.65625 -7.1875 Z M 12.65625 -7.1875 "/></g></g></g><g fill="#000000" fill-opacity="1"><g transform="translate(56.201769, 19.901572)"><g><path d="M 9.640625 -1.90625 C 9.921875 -1.90625 10.15625 -1.816406 10.34375 -1.640625 C 10.53125 -1.460938 10.625 -1.226562 10.625 -0.9375 C 10.625 -0.664062 10.53125 -0.441406 10.34375 -0.265625 C 10.15625 -0.0859375 9.921875 0 9.640625 0 L 2.6875 0 C 2.40625 0 2.171875 -0.09375 1.984375 -0.28125 C 1.796875 -0.476562 1.703125 -0.710938 1.703125 -0.984375 L 1.703125 -13.390625 C 1.703125 -13.671875 1.796875 -13.90625 1.984375 -14.09375 C 2.179688 -14.289062 2.429688 -14.390625 2.734375 -14.390625 C 3.003906 -14.390625 3.238281 -14.289062 3.4375 -14.09375 C 3.632812 -13.90625 3.734375 -13.671875 3.734375 -13.390625 L 3.734375 -1.90625 Z M 9.640625 -1.90625 "/></g></g></g><g fill="#000000" fill-opacity="1"><g transform="translate(80.898627, 19.901572)"><g><path d="M 11.890625 -14.40625 C 12.179688 -14.40625 12.410156 -14.3125 12.578125 -14.125 C 12.753906 -13.9375 12.84375 -13.703125 12.84375 -13.421875 L 12.84375 -5.53125 C 12.84375 -4.445312 12.601562 -3.472656 12.125 -2.609375 C 11.644531 -1.742188 10.984375 -1.066406 10.140625 -0.578125 C 9.296875 -0.0976562 8.347656 0.140625 7.296875 0.140625 C 6.222656 0.140625 5.257812 -0.0976562 4.40625 -0.578125 C 3.5625 -1.066406 2.898438 -1.742188 2.421875 -2.609375 C 1.941406 -3.472656 1.703125 -4.445312 1.703125 -5.53125 L 1.703125 -13.421875 C 1.703125 -13.703125 1.796875 -13.9375 1.984375 -14.125 C 2.179688 -14.3125 2.429688 -14.40625 2.734375 -14.40625 C 2.992188 -14.40625 3.222656 -14.304688 3.421875 -14.109375 C 3.617188 -13.921875 3.71875 -13.691406 3.71875 -13.421875 L 3.71875 -5.53125 C 3.71875 -4.8125 3.878906 -4.164062 4.203125 -3.59375 C 4.535156 -3.03125 4.972656 -2.59375 5.515625 -2.28125 C 6.066406 -1.96875 6.660156 -1.8125 7.296875 -1.8125 C 7.953125 -1.8125 8.5625 -1.96875 9.125 -2.28125 C 9.6875 -2.59375 10.132812 -3.03125 10.46875 -3.59375 C 10.800781 -4.164062 10.96875 -4.8125 10.96875 -5.53125 L 10.96875 -13.421875 C 10.96875 -13.703125 11.050781 -13.9375 11.21875 -14.125 C 11.382812 -14.3125 11.609375 -14.40625 11.890625 -14.40625 Z M 11.890625 -14.40625 "/></g></g></g><g fill="#000000" fill-opacity="1"><g transform="translate(108.840725, 19.901572)"><g><path d="M 11.03125 -14.390625 C 11.320312 -14.390625 11.554688 -14.300781 11.734375 -14.125 C 11.921875 -13.957031 12.015625 -13.726562 12.015625 -13.4375 C 12.015625 -13.144531 11.921875 -12.914062 11.734375 -12.75 C 11.554688 -12.59375 11.320312 -12.515625 11.03125 -12.515625 L 7.375 -12.515625 L 7.375 -0.984375 C 7.375 -0.710938 7.273438 -0.476562 7.078125 -0.28125 C 6.878906 -0.09375 6.628906 0 6.328125 0 C 6.023438 0 5.773438 -0.09375 5.578125 -0.28125 C 5.378906 -0.476562 5.28125 -0.710938 5.28125 -0.984375 L 5.28125 -12.515625 L 1.640625 -12.515625 C 1.359375 -12.515625 1.125 -12.597656 0.9375 -12.765625 C 0.75 -12.941406 0.65625 -13.171875 0.65625 -13.453125 C 0.65625 -13.734375 0.75 -13.957031 0.9375 -14.125 C 1.125 -14.300781 1.359375 -14.390625 1.640625 -14.390625 Z M 11.03125 -14.390625 "/></g></g></g><g fill="#000000" fill-opacity="1"><g transform="translate(134.913731, 19.901572)"><g><path d="M 3.734375 -1 C 3.734375 -0.71875 3.628906 -0.476562 3.421875 -0.28125 C 3.222656 -0.09375 2.988281 0 2.71875 0 C 2.414062 0 2.171875 -0.09375 1.984375 -0.28125 C 1.796875 -0.476562 1.703125 -0.71875 1.703125 -1 L 1.703125 -13.390625 C 1.703125 -13.671875 1.796875 -13.90625 1.984375 -14.09375 C 2.179688 -14.289062 2.429688 -14.390625 2.734375 -14.390625 C 3.003906 -14.390625 3.238281 -14.289062 3.4375 -14.09375 C 3.632812 -13.90625 3.734375 -13.671875 3.734375 -13.390625 Z M 3.734375 -1 "/></g></g></g><g fill="#000000" fill-opacity="1"><g transform="translate(153.756794, 19.901572)"><g><path d="M 14.765625 -7.1875 C 14.765625 -5.800781 14.46875 -4.546875 13.875 -3.421875 C 13.28125 -2.304688 12.457031 -1.421875 11.40625 -0.765625 C 10.351562 -0.117188 9.160156 0.203125 7.828125 0.203125 C 6.492188 0.203125 5.300781 -0.117188 4.25 -0.765625 C 3.195312 -1.421875 2.375 -2.304688 1.78125 -3.421875 C 1.1875 -4.546875 0.890625 -5.800781 0.890625 -7.1875 C 0.890625 -8.570312 1.1875 -9.828125 1.78125 -10.953125 C 2.375 -12.078125 3.195312 -12.960938 4.25 -13.609375 C 5.300781 -14.265625 6.492188 -14.59375 7.828125 -14.59375 C 9.160156 -14.59375 10.351562 -14.265625 11.40625 -13.609375 C 12.457031 -12.960938 13.28125 -12.078125 13.875 -10.953125 C 14.46875 -9.828125 14.765625 -8.570312 14.765625 -7.1875 Z M 12.65625 -7.1875 C 12.65625 -8.21875 12.445312 -9.144531 12.03125 -9.96875 C 11.625 -10.800781 11.050781 -11.453125 10.3125 -11.921875 C 9.582031 -12.398438 8.753906 -12.640625 7.828125 -12.640625 C 6.898438 -12.640625 6.066406 -12.40625 5.328125 -11.9375 C 4.597656 -11.46875 4.023438 -10.816406 3.609375 -9.984375 C 3.203125 -9.160156 3 -8.226562 3 -7.1875 C 3 -6.164062 3.203125 -5.238281 3.609375 -4.40625 C 4.023438 -3.582031 4.597656 -2.929688 5.328125 -2.453125 C 6.066406 -1.984375 6.898438 -1.75 7.828125 -1.75 C 8.753906 -1.75 9.582031 -1.984375 10.3125 -2.453125 C 11.050781 -2.929688 11.625 -3.582031 12.03125 -4.40625 C 12.445312 -5.238281 12.65625 -6.164062 12.65625 -7.1875 Z M 12.65625 -7.1875 "/></g></g></g><g fill="#000000" fill-opacity="1"><g transform="translate(182.80803, 19.901572)"><g><path d="M 12.453125 -14.390625 C 12.710938 -14.390625 12.921875 -14.300781 13.078125 -14.125 C 13.242188 -13.957031 13.328125 -13.742188 13.328125 -13.484375 L 13.328125 -1 C 13.328125 -0.71875 13.234375 -0.476562 13.046875 -0.28125 C 12.867188 -0.09375 12.632812 0 12.34375 0 C 12.195312 0 12.050781 -0.0195312 11.90625 -0.0625 C 11.757812 -0.113281 11.644531 -0.1875 11.5625 -0.28125 L 3.5 -10.8125 L 3.5 -0.90625 C 3.5 -0.644531 3.410156 -0.425781 3.234375 -0.25 C 3.066406 -0.0820312 2.851562 0 2.59375 0 C 2.332031 0 2.117188 -0.0820312 1.953125 -0.25 C 1.785156 -0.425781 1.703125 -0.644531 1.703125 -0.90625 L 1.703125 -13.390625 C 1.703125 -13.679688 1.796875 -13.921875 1.984375 -14.109375 C 2.171875 -14.296875 2.398438 -14.390625 2.671875 -14.390625 C 2.835938 -14.390625 2.992188 -14.359375 3.140625 -14.296875 C 3.296875 -14.234375 3.414062 -14.144531 3.5 -14.03125 L 11.546875 -3.5 L 11.546875 -13.484375 C 11.546875 -13.742188 11.628906 -13.957031 11.796875 -14.125 C 11.972656 -14.300781 12.191406 -14.390625 12.453125 -14.390625 Z M 12.453125 -14.390625 "/></g></g></g></g></g></svg>