<svg width="1200" height="630" viewBox="0 0 1200 630" fill="none" xmlns="http://www.w3.org/2000/svg">
  <defs>
    <linearGradient id="bg" x1="0" y1="0" x2="1200" y2="630" gradientUnits="userSpaceOnUse">
      <stop stop-color="#F8FAFC"/>
      <stop offset="1" stop-color="#E7F0FF"/>
    </linearGradient>
    <radialGradient id="glow" cx="0" cy="0" r="1" gradientUnits="userSpaceOnUse" gradientTransform="translate(280 140) rotate(36) scale(420 280)">
      <stop stop-color="#5E9DF3" stop-opacity="0.22"/>
      <stop offset="1" stop-color="#5E9DF3" stop-opacity="0"/>
    </radialGradient>
    <filter id="shadow" x="690" y="104" width="350" height="410" filterUnits="userSpaceOnUse" color-interpolation-filters="sRGB">
      <feFlood flood-opacity="0" result="BackgroundImageFix"/>
      <feColorMatrix in="SourceAlpha" type="matrix" values="0 0 0 0 0 0 0 0 0 0 0 0 0 0 0 0 0 0 127 0" result="hardAlpha"/>
      <feOffset dy="16"/>
      <feGaussianBlur stdDeviation="20"/>
      <feColorMatrix type="matrix" values="0 0 0 0 0.0588235 0 0 0 0 0.0901961 0 0 0 0 0.164706 0 0 0 0.15 0"/>
      <feBlend mode="normal" in2="BackgroundImageFix" result="effect1_dropShadow_0_1"/>
      <feBlend mode="normal" in="SourceGraphic" in2="effect1_dropShadow_0_1" result="shape"/>
    </filter>
  </defs>

  <rect width="1200" height="630" rx="28" fill="url(#bg)"/>
  <rect width="1200" height="630" rx="28" fill="url(#glow)"/>

  <g opacity="0.34">
    <path d="M0 110H1200" stroke="#C7D6EE"/>
    <path d="M0 194H1200" stroke="#D4E0F2"/>
    <path d="M0 278H1200" stroke="#D4E0F2"/>
    <path d="M0 362H1200" stroke="#D4E0F2"/>
    <path d="M0 446H1200" stroke="#D4E0F2"/>
    <path d="M0 530H1200" stroke="#D4E0F2"/>
    <path d="M120 0V630" stroke="#D4E0F2"/>
    <path d="M230 0V630" stroke="#D4E0F2"/>
    <path d="M340 0V630" stroke="#D4E0F2"/>
    <path d="M450 0V630" stroke="#D4E0F2"/>
    <path d="M560 0V630" stroke="#D4E0F2"/>
    <path d="M670 0V630" stroke="#D4E0F2"/>
    <path d="M780 0V630" stroke="#D4E0F2"/>
    <path d="M890 0V630" stroke="#D4E0F2"/>
    <path d="M1000 0V630" stroke="#D4E0F2"/>
    <path d="M1110 0V630" stroke="#D4E0F2"/>
  </g>

  <text x="88" y="92" fill="#0F172A" font-family="Arial, Helvetica, sans-serif" font-size="62" font-weight="700" letter-spacing="-2">vextor</text>
  <text x="92" y="120" fill="#64748B" font-family="Arial, Helvetica, sans-serif" font-size="18" font-weight="700" letter-spacing="8">SOLUTION</text>

  <rect x="88" y="154" width="308" height="40" rx="20" fill="#EAF2FF" stroke="#B7CBF0" stroke-width="2"/>
  <text x="118" y="181" fill="#0860C3" font-family="Arial, Helvetica, sans-serif" font-size="20" font-weight="700" letter-spacing="1.4">SALESFORCE CONSULTING</text>

  <text x="88" y="262" fill="#0F172A" font-family="Arial, Helvetica, sans-serif" font-size="64" font-weight="700" letter-spacing="-2.4">Salesforce delivery</text>
  <text x="88" y="336" fill="#0F172A" font-family="Arial, Helvetica, sans-serif" font-size="64" font-weight="700" letter-spacing="-2.4">for project-based</text>
  <text x="88" y="410" fill="#0860C3" font-family="Arial, Helvetica, sans-serif" font-size="64" font-weight="700" letter-spacing="-2.4">operations.</text>

  <text x="94" y="516" fill="#5D6F8F" font-family="Arial, Helvetica, sans-serif" font-size="26" font-weight="600">
    Architecture • BuilderTek • Automation • Integrations • Managed Support
  </text>

  <g filter="url(#shadow)">
    <rect x="730" y="126" width="270" height="346" rx="28" fill="white"/>
    <rect x="730" y="126" width="270" height="346" rx="28" stroke="#D6E2F5" stroke-width="2"/>
    <text x="768" y="182" fill="#0860C3" font-family="Arial, Helvetica, sans-serif" font-size="18" font-weight="700" letter-spacing="2">OPERATING BLUEPRINT</text>
    <text x="768" y="246" fill="#0F172A" font-family="Arial, Helvetica, sans-serif" font-size="43" font-weight="700" letter-spacing="-1.8">A cleaner delivery</text>
    <text x="768" y="294" fill="#0F172A" font-family="Arial, Helvetica, sans-serif" font-size="43" font-weight="700" letter-spacing="-1.8">that scales cleanly.</text>
    
    <path d="M768 368H952" stroke="#D5E0F2" stroke-width="2"/>
    <rect x="768" y="398" width="26" height="26" rx="9" fill="#EAF2FF"/>
    <rect x="806" y="402" width="118" height="12" rx="6" fill="#0F172A" fill-opacity="0.92"/>
    <rect x="806" y="422" width="140" height="9" rx="4.5" fill="#6982A9" fill-opacity="0.82"/>
  </g>
</svg>
